#tb 0: 1/1000
0,          0,          0,        0,    66528, cf35dffc80946e87bb9d3e18aab9d320
0,         33,         33,        0,    66528, a76ac92f05e9b097f8ac5882e1ffe656
0,         66,         66,        0,    66528, faa1e8a11c9df3e9c9a9dafbebea6d04
0,        100,        100,        0,    66528, 905a28289c8ac793b335096ca7f84e1d
0,        133,        133,        0,    66528, cb480fa6977baf98a74bddf213ecba82
0,        166,        166,        0,    66528, 35224d3708e3ba1dafcc58b803d5ea77
0,        200,        200,        0,    66528, d166d764e87854bca47ab7a2bc8b1f9b
0,        233,        233,        0,    66528, 562f1e06ae36abba5f1fb53e3d6cd7e8
0,        266,        266,        0,    66528, 1599cebef060f6464aeef15aacbde446
0,        300,        300,        0,    66528, 3316ebca2864a9dc04db86069efb1dd1
